<?xml version="1.0" encoding="iso-8859-1"?>
<!-- Generator: Adobe Illustrator 19.0.0, SVG Export Plug-In . SVG Version: 6.00 Build 0)  -->
<svg version="1.1" id="Layer_1" xmlns="http://www.w3.org/2000/svg" xmlns:xlink="http://www.w3.org/1999/xlink" x="0px" y="0px"
	 viewBox="0 0 512 512" style="enable-background:new 0 0 512 512;" xml:space="preserve">
<g transform="translate(1 1)">
	<g>
		<path style="fill:#FFDD09;" d="M186.733,7.533V127c0,46.933,30.72,85.333,68.267,85.333s68.267-38.4,68.267-85.333V7.533H186.733z
			"/>
		<path style="fill:#FFDD09;" d="M222.573,425.667c0-13.653,5.12-26.453,13.653-34.133h-46.08c-11.947,0-20.48,11.093-20.48,25.6
			v51.2H255C237.08,468.333,222.573,449.56,222.573,425.667"/>
		<path style="fill:#FFDD09;" d="M320.707,391.533h-46.08c7.68,7.68,13.653,20.48,13.653,34.133
			c0,23.893-14.507,42.667-32.427,42.667h85.333v-51.2C340.333,402.627,331.8,391.533,320.707,391.533"/>
		<path style="fill:#FFDD09;" d="M340.333,144.067c-5.12,0-8.533-3.413-8.533-8.533V50.2c0-5.12,3.413-8.533,8.533-8.533H408.6
			c5.12,0,8.533,3.413,8.533,8.533v17.067C417.133,109.933,383,144.067,340.333,144.067z M348.867,58.733v67.413
			c29.013-4.267,51.2-29.013,51.2-58.88v-8.533H348.867z"/>
		<path style="fill:#FFDD09;" d="M169.667,144.067c-42.667,0-76.8-34.133-76.8-76.8V50.2c0-5.12,3.413-8.533,8.533-8.533h68.267
			c5.12,0,8.533,3.413,8.533,8.533v85.333C178.2,140.653,174.787,144.067,169.667,144.067z M109.933,58.733v8.533
			c0,29.867,22.187,54.613,51.2,58.88V58.733H109.933z"/>
	</g>
	<path style="fill:#FFFFFF;" d="M186.733,127V7.533h-17.067V127c0,46.933,38.4,85.333,85.333,85.333
		C217.453,212.333,186.733,173.933,186.733,127"/>
	<path style="fill:#FD9808;" d="M323.267,7.533V127c0,46.933-30.72,85.333-68.267,85.333c46.933,0,85.333-38.4,85.333-85.333V7.533
		H323.267z"/>
	<path style="fill:#FFDD09;" d="M135.533,502.467h238.933v-34.133H135.533V502.467z"/>
	<path style="fill:#FD9808;" d="M374.467,502.467h25.6v-34.133h-25.6V502.467z"/>
	<path style="fill:#FFFFFF;" d="M109.933,502.467h25.6v-34.133h-25.6V502.467z"/>
	<path style="fill:#FFDD09;" d="M255,383c9.387,0,17.92,3.413,25.6,8.533h51.2l-29.013-20.48
		c-8.533-8.533-13.653-21.333-13.653-34.133V205.507c-10.24,4.267-22.187,6.827-34.133,6.827s-23.893-2.56-34.133-6.827v132.267
		c0,12.8-5.12,24.747-13.653,34.133L178.2,391.533h51.2C237.08,386.413,245.613,383,255,383"/>
	<path style="fill:#54C9FD;" d="M297.667,425.667c0,23.893-18.773,42.667-42.667,42.667s-42.667-18.773-42.667-42.667
		S231.107,383,255,383S297.667,401.773,297.667,425.667"/>
	<path style="fill:#FFFFFF;" d="M189.293,391.533h-19.627c-14.507,0-25.6,11.093-25.6,25.6v51.2h25.6v-51.2
		C169.667,402.627,178.2,391.533,189.293,391.533"/>
	<path style="fill:#FD9808;" d="M340.333,391.533h-19.627c11.093,0,19.627,11.093,19.627,25.6v51.2h25.6v-51.2
		C365.933,402.627,354.84,391.533,340.333,391.533"/>
	<path style="fill:#54C9FD;" d="M255,50.2l17.067,34.133H306.2l-25.6,34.133l7.68,34.133L255,135.533L221.72,152.6l7.68-34.133
		l-25.6-34.133h34.133L255,50.2z"/>
	<g>
		<path style="fill:#020101;" d="M255,220.867c-52.053,0-93.867-41.813-93.867-93.867V7.533c0-5.12,3.413-8.533,8.533-8.533h170.667
			c5.12,0,8.533,3.413,8.533,8.533V127C348.867,179.053,307.053,220.867,255,220.867z M178.2,16.067V127
			c0,42.667,34.133,76.8,76.8,76.8s76.8-34.133,76.8-76.8V16.067H178.2z"/>
		<path style="fill:#020101;" d="M306.2,340.333H203.8c-5.12,0-8.533-3.413-8.533-8.533s3.413-8.533,8.533-8.533h102.4
			c5.12,0,8.533,3.413,8.533,8.533S311.32,340.333,306.2,340.333z"/>
		<path style="fill:#020101;" d="M306.2,297.667H203.8c-5.12,0-8.533-3.413-8.533-8.533c0-5.12,3.413-8.533,8.533-8.533h102.4
			c5.12,0,8.533,3.413,8.533,8.533C314.733,294.253,311.32,297.667,306.2,297.667z"/>
		<path style="fill:#020101;" d="M306.2,255H203.8c-5.12,0-8.533-3.413-8.533-8.533c0-5.12,3.413-8.533,8.533-8.533h102.4
			c5.12,0,8.533,3.413,8.533,8.533C314.733,251.587,311.32,255,306.2,255z"/>
		<path style="fill:#020101;" d="M221.72,161.133c-1.707,0-3.413-0.853-5.12-1.707c-2.56-1.707-3.413-5.12-3.413-8.533l6.827-29.867
			l-23.04-31.573c-1.707-2.56-2.56-5.973-0.853-8.533c1.707-3.413,4.267-5.12,7.68-5.12h29.013l14.507-29.013
			c1.707-3.413,4.267-5.12,7.68-5.12l0,0c3.413,0,5.973,1.707,7.68,5.12L277.187,75.8H306.2c3.413,0,5.973,1.707,7.68,5.12
			c1.707,2.56,0.853,5.973-0.853,8.533l-23.04,31.573l6.827,29.867c0.853,3.413,0,6.827-3.413,8.533
			c-2.56,1.707-5.973,2.56-9.387,0.853L255,144.92l-29.867,15.36C224.28,161.133,222.573,161.133,221.72,161.133z M220.867,92.867
			l15.36,20.48c1.707,2.56,1.707,5.12,1.707,7.68l-3.413,16.213l17.067-8.533c2.56-0.853,5.12-0.853,7.68,0l17.067,8.533
			l-4.267-16.213c-0.853-2.56,0-5.12,1.707-6.827l15.36-21.333h-17.067c-3.413,0-5.973-1.707-7.68-5.12L255,69.827L245.613,88.6
			c-0.853,2.56-4.267,4.267-7.68,4.267H220.867z"/>
		<path style="fill:#020101;" d="M400.067,511H109.933c-5.12,0-8.533-3.413-8.533-8.533v-34.133c0-5.12,3.413-8.533,8.533-8.533
			h290.133c5.12,0,8.533,3.413,8.533,8.533v34.133C408.6,507.587,405.187,511,400.067,511z M118.467,493.933h273.067v-17.067
			H118.467V493.933z"/>
		<path style="fill:#020101;" d="M340.333,135.533c-5.12,0-8.533-3.413-8.533-8.533V41.667c0-5.12,3.413-8.533,8.533-8.533H408.6
			c5.12,0,8.533,3.413,8.533,8.533v17.067C417.133,101.4,383,135.533,340.333,135.533z M348.867,50.2v67.413
			c29.013-4.267,51.2-29.013,51.2-58.88V50.2H348.867z"/>
		<path style="fill:#020101;" d="M169.667,135.533c-42.667,0-76.8-34.133-76.8-76.8V41.667c0-5.12,3.413-8.533,8.533-8.533h68.267
			c5.12,0,8.533,3.413,8.533,8.533V127C178.2,132.12,174.787,135.533,169.667,135.533z M109.933,50.2v8.533
			c0,29.867,22.187,54.613,51.2,58.88V50.2H109.933z"/>
		<path style="fill:#020101;" d="M255,476.867c-28.16,0-51.2-23.04-51.2-51.2s23.04-51.2,51.2-51.2s51.2,23.04,51.2,51.2
			S283.16,476.867,255,476.867z M255,391.533c-18.773,0-34.133,15.36-34.133,34.133S236.227,459.8,255,459.8
			s34.133-15.36,34.133-34.133S273.773,391.533,255,391.533z"/>
		<path style="fill:#020101;" d="M255,476.867H144.067c-5.12,0-8.533-3.413-8.533-8.533v-51.2c0-18.773,15.36-34.133,34.133-34.133
			H229.4c3.413,0,6.827,2.56,7.68,5.973c0.853,3.413,0,7.68-3.413,9.387c-8.533,6.827-13.653,16.213-13.653,27.307
			c0,18.773,15.36,34.133,34.133,34.133c5.12,0,8.533,3.413,8.533,8.533C262.68,473.453,260.12,476.867,255,476.867z M152.6,459.8
			h64c-8.533-9.387-12.8-21.333-12.8-34.133c0-9.387,2.56-17.92,6.827-25.6h-40.96c-9.387,0-17.067,7.68-17.067,17.067V459.8z"/>
		<path style="fill:#020101;" d="M365.933,476.867H255c-5.12,0-8.533-3.413-8.533-8.533c0-5.12,3.413-8.533,8.533-8.533
			c18.773,0,34.133-15.36,34.133-34.133c0-11.093-5.12-20.48-13.653-27.307c-2.56-2.56-4.267-5.973-3.413-9.387
			c0.853-3.413,4.267-5.973,8.533-5.973h59.733c18.773,0,34.133,15.36,34.133,34.133v51.2
			C374.467,473.453,371.053,476.867,365.933,476.867z M293.4,459.8h64v-42.667c0-9.387-7.68-17.067-17.067-17.067h-40.96
			c4.267,7.68,6.827,16.213,6.827,25.6C306.2,438.467,301.08,450.413,293.4,459.8z"/>
		<path style="fill:#020101;" d="M331.8,400.067h-51.2c-1.707,0-3.413-0.853-5.12-1.707c-11.947-8.533-28.16-8.533-40.96,0
			c-0.853,0.853-3.413,1.707-5.12,1.707h-51.2c-3.413,0-6.827-2.56-8.533-5.973c-0.853-3.413,0-7.68,3.413-9.387l28.16-19.627
			c6.827-7.68,11.093-17.067,11.093-27.307V205.507c0-2.56,1.707-5.973,4.267-6.827c2.56-0.853,5.12-1.707,7.68-0.853
			c19.627,8.533,41.813,8.533,61.44,0c2.56-0.853,5.973-0.853,7.68,0.853c2.56,1.707,4.267,4.267,4.267,6.827v132.267
			c0,10.24,4.267,19.627,11.093,27.307l28.16,19.627c3.413,2.56,4.267,5.973,3.413,9.387
			C338.627,397.507,335.213,400.067,331.8,400.067z M283.16,383h21.333l-6.827-4.267l-0.853-0.853
			c-10.24-10.24-16.213-24.747-16.213-40.107v-120.32c-16.213,5.12-34.987,5.12-51.2,0v120.32c0,15.36-5.973,29.013-16.213,40.107
			l-0.853,0.853L205.507,383h21.333C243.907,371.907,266.093,371.907,283.16,383z"/>
		<path style="fill:#020101;" d="M365.933,16.067H144.067c-5.12,0-8.533-3.413-8.533-8.533S138.947-1,144.067-1h221.867
			c5.12,0,8.533,3.413,8.533,8.533S371.053,16.067,365.933,16.067z"/>
	</g>
</g>
<g>
</g>
<g>
</g>
<g>
</g>
<g>
</g>
<g>
</g>
<g>
</g>
<g>
</g>
<g>
</g>
<g>
</g>
<g>
</g>
<g>
</g>
<g>
</g>
<g>
</g>
<g>
</g>
<g>
</g>
</svg>
